# xmcd
#
# Track frame offsets: 
#        150
#        4281
#        23128
#        41090
#        41756
#        52990
#        61107
#        73135
#        89506
#        110846
#        125775
#        147054
#        157805
#        160466
#        176497
#        185518
#        188281
#        212772
#        230878
#        241669
#        248797
#        298336
#        314436
#
# Disc length: 4469 seconds
#
# Revision: 0
# Processed by: cddbd v1.5.2PL0 Copyright (c) Steve Scherf et al.
# Submitted via: ExactAudioCopy v0.95b3
#
DISCID=50117317
DTITLE=Va  - Altamont - Disc 1  FLAC
DYEAR=1900
DGENRE=
TTITLE0=Introduction by Mick Jagger
TTITLE1=Instrumental - Santana
TTITLE2=Jingo - Santana
TTITLE3=Introduction
TTITLE4=Six Days On The Road - The Flying Burrito Brothers
TTITLE5=High Fashion Queen - The Flying Burrito Brothers
TTITLE6=Cody, Cody - The Flying Burrito Brothers
TTITLE7=Lazy Day - The Flying Burrito Brothers
TTITLE8=Black Queen - Crosby, Stills, Nash and Young
TTITLE9=Pre-Road Downs - Crosby, Stills, Nash and Young
TTITLE10=Long Time Gone - Crosby, Stills, Nash and Young
TTITLE11=Down By The River (incomplete) - Crosby, Stills, Nash and Young
TTITLE12=Announcements\\Introduction
TTITLE13=The Other Side of Life - Jefferson Airplane
TTITLE14=Easy, Everybody - Marty Balins gets knocked out - Paul Kantne
TTITLE14=r
TTITLE15=3\\5 of a Mile in 10 Sec. (false start) - Jefferson Airplane
TTITLE16=3\\5 of a Mile in 10 Sec. - Jefferson Airplane
TTITLE17=Fat Angel - Jefferson Airplane
TTITLE18=White Rabbit - Jefferson Airplane
TTITLE19=Free Bird - Jefferson Airplane
TTITLE20=Ballad of You and Me and Poonel - Jefferson Airplane
TTITLE21=Jumpin Jack Flash - The Rolling Stones
TTITLE22=Carol - The Rolling Stones
EXTD=
EXTT0=
EXTT1=
EXTT2=
EXTT3=
EXTT4=
EXTT5=
EXTT6=
EXTT7=
EXTT8=
EXTT9=
EXTT10=
EXTT11=
EXTT12=
EXTT13=
EXTT14=
EXTT15=
EXTT16=
EXTT17=
EXTT18=
EXTT19=
EXTT20=
EXTT21=
EXTT22=
PLAYORDER=
